<svg width="40" height="40" enable-background="new 0 0 453.54 453.54" version="1.1" viewBox="0 0 40 40" xmlns="http://www.w3.org/2000/svg">
 <path d="m27.705 37.632-3.6503-0.9336-2.631-2.0605v-15.088l3.18-3.4534 1.7214 1.299c-0.06727 0.14257-0.10762 0.29963-0.10762 0.46707 0 0.60753 0.49308 1.1015 1.0995 1.1015s1.0995-0.49401 1.0995-1.1015c0-0.60754-0.49309-1.1016-1.0995-1.1016-0.25146 0-0.48067 0.0881-0.66641 0.2312l-1.4679-1.1078 2.7572-1.1586 1.8037 1.8231c-0.0683 0.1436-0.10969 0.30222-0.10969 0.47121 0 0.60754 0.49309 1.1016 1.0995 1.1016 0.6064 0 1.0995-0.49401 1.0995-1.1016s-0.49308-1.1016-1.0995-1.1016c-0.24887 0-0.47601 0.0866-0.66072 0.22653l-1.6179-1.6355 2.676-1.1244 1.7162 1.1721c-0.0269 0.0954-0.04605 0.19438-0.04605 0.29807 0 0.60752 0.49308 1.1015 1.0995 1.1015 0.6064 0 1.0995-0.49401 1.0995-1.1015 0-0.60754-0.49308-1.1016-1.0995-1.1016-0.31562 0-0.59863 0.13582-0.79887 0.34939l-1.5988-1.0917 0.69901-1.4784c0.06882 0.0135 0.14022 0.0217 0.21317 0.0217 0.60639 0 1.0995-0.49401 1.0995-1.1015 0-0.60754-0.49308-1.1016-1.0995-1.1016-0.6064 0-1.0995 0.49401-1.0995 1.1016 0 0.34886 0.16557 0.65626 0.41909 0.85843l-0.74299 1.5702-2.6755 1.1244 0.41651-3.0086c0.56138-0.0487 1.0053-0.51682 1.0053-1.0917 0-0.60753-0.49308-1.1016-1.0995-1.1016-0.6064 0-1.0995 0.49402-1.0995 1.1016 0 0.45927 0.28198 0.85272 0.68194 1.0181l-0.45945 3.3155-2.8773 1.2088 0.28664-1.3623c0.04501 6e-3 0.08899 0.0135 0.13556 0.0135 0.6064 0 1.0995-0.494 1.0995-1.1015 0-0.60753-0.49308-1.1015-1.0995-1.1015-0.60639 0-1.0995 0.49401-1.0995 1.1015 0 0.37426 0.18833 0.70447 0.47394 0.90404l-0.36736 1.7448-2.9011 3.1502v-5.3921l0.6333-1.0248 4.5376-2.7832 0.02017 0.0166 1.4606-1.777 2.4468-0.0404c0.12004 0.47742 0.54948 0.83354 1.0627 0.83354 0.6064 0 1.0995-0.49401 1.0995-1.1016 0-0.60752-0.49308-1.1015-1.0995-1.1015-0.51999 0-0.95409 0.36442-1.0679 0.85117l-2.0096 0.0332 1.2878-1.5665c0.12262 0.0472 0.25508 0.0762 0.39426 0.0762 0.6064 0 1.0995-0.49401 1.0995-1.1016 0-0.60752-0.49308-1.1015-1.0995-1.1015-0.6064 0-1.0995 0.49401-1.0995 1.1015 0 0.27993 0.10762 0.5329 0.28043 0.72729l-3.0516 3.7126-3.657 2.2425 3.7853-6.1241c0.08641 0.0217 0.1754 0.0373 0.26905 0.0373 0.60639 0 1.0995-0.494 1.0995-1.1015 0-0.60752-0.49309-1.1015-1.0995-1.1015-0.60639 0-1.0995 0.49401-1.0995 1.1015 0 0.3271 0.14591 0.61791 0.37253 0.82007l-1.74 2.8153-0.86872-2.7251 2.0706-2.638c0.13038 0.055 0.2737 0.0855 0.42376 0.0855 0.6064 0 1.0995-0.49401 1.0995-1.1015 0-0.60753-0.49308-1.1015-1.0995-1.1015-0.6064 0-1.0995 0.49401-1.0995 1.1015 0 0.26956 0.10089 0.5132 0.26129 0.70447l-1.8466 2.3534-0.78852-2.4726c0.33166-0.19024 0.55776-0.54326 0.55776-0.95278 0-0.60753-0.49308-1.1015-1.0995-1.1015-0.6064 0-1.0995 0.49401-1.0995 1.1015 0 0.60754 0.49308 1.1016 1.0995 1.1016 0.01552 0 0.02949-4e-3 0.0445-5e-3l1.9858 6.2293-1.8109 2.9299-0.63226-1.9652c0.30837-0.1949 0.51533-0.53755 0.51533-0.92944 0-0.60753-0.49308-1.1015-1.0995-1.1015-0.60639 0-1.0995 0.49401-1.0995 1.1015s0.49308 1.1015 1.0995 1.1015c0.03208 0 0.06157-7e-3 0.09313-9e-3l0.76627 2.3809-0.80818 1.3073h-0.0083v0.0135l-5.24e-4 1e-3 5.24e-4 5.2e-4v6.2816h-1.7892v-6.3656h-0.0078l-1.8518-2.9687 1.4332-3.2331c0.07503 0.016 0.15212 0.0259 0.2318 0.0259 0.6064 0 1.0995-0.49401 1.0995-1.1015 0-0.60754-0.49308-1.1016-1.0995-1.1016-0.6064 0-1.0995 0.49401-1.0995 1.1016 0 0.34161 0.15936 0.6433 0.40306 0.84547l-1.2997 2.9324-0.78852-1.2643 1.9806-6.2122c0.01501 5.2e-4 0.02949 5e-3 0.0445 5e-3 0.60639 0 1.0995-0.49401 1.0995-1.1016 0-0.60753-0.49308-1.1015-1.0995-1.1015-0.6064 0-1.0995 0.49401-1.0995 1.1015 0 0.40952 0.22662 0.76254 0.55776 0.95278l-0.78438 2.4602-1.0679-1.4276c0.19713-0.19906 0.31975-0.47328 0.31975-0.77549 0-0.60753-0.49308-1.1015-1.0995-1.1015-0.60639 0-1.0995 0.49401-1.0995 1.1015s0.49308 1.1015 1.0995 1.1015c0.11745 0 0.22818-0.0233 0.33424-0.0574l1.3204 1.7646-0.86561 2.7147-1.1486-1.8413c0.20541-0.20009 0.33424-0.47898 0.33424-0.78845 0-0.60753-0.49308-1.1015-1.0995-1.1015-0.6064 0-1.0995 0.49401-1.0995 1.1015s0.49308 1.1015 1.0995 1.1015c0.11124 0 0.21627-0.0217 0.31768-0.0524l3.2301 5.1786-3.6384-2.2316-3.1194-3.7572c0.17126-0.19439 0.27836-0.44632 0.27836-0.72521 0-0.60752-0.49308-1.1015-1.0995-1.1015-0.60639 0-1.0995 0.49401-1.0995 1.1015 0 0.60754 0.49308 1.1016 1.0995 1.1016 0.14022 0 0.27319-0.029 0.39685-0.0767l1.2666 1.5256h-1.9935c-0.11745-0.48209-0.54896-0.84237-1.0658-0.84237-0.6064 0-1.0995 0.49401-1.0995 1.1016 0 0.60753 0.49308 1.1016 1.0995 1.1016 0.51688 0 0.9484-0.36026 1.0658-0.84236h2.424l1.4793 1.7822-0.0062 0.0104 0.03052 0.0187 0.04346 0.0524 0.01759-0.015 4.5262 2.7759 0.0026-4e-3 0.57845 0.92737v5.4611l-2.9006-3.1502-0.36787-1.7454c0.28561-0.19906 0.47394-0.52926 0.47394-0.90404 0-0.60753-0.49308-1.1016-1.0995-1.1016s-1.0995 0.49402-1.0995 1.1016c0 0.60754 0.49308 1.1016 1.0995 1.1016 0.04657 0 0.09054-8e-3 0.13556-0.0135l0.28716 1.3623-2.8773-1.2088-0.45945-3.3155c0.39943-0.16536 0.68194-0.55881 0.68194-1.0181 0-0.60755-0.49308-1.1016-1.0995-1.1016-0.60639 0-1.0995 0.49401-1.0995 1.1016 0 0.57487 0.44341 1.0435 1.0053 1.0917l0.41651 3.0086-2.6755-1.1238-0.74299-1.5702c0.25353-0.20217 0.41909-0.50957 0.41909-0.85843 0-0.60754-0.49308-1.1016-1.0995-1.1016s-1.0995 0.49401-1.0995 1.1016c0 0.60753 0.49308 1.1015 1.0995 1.1015 0.07295 0 0.14384-8e-3 0.21265-0.0217l0.69953 1.4784-1.5988 1.0917c-0.20075-0.21409-0.48377-0.34991-0.79887-0.34991-0.60639 0-1.0995 0.49401-1.0995 1.1016 0 0.60752 0.49308 1.1015 1.0995 1.1015s1.0995-0.49402 1.0995-1.1015c0-0.1042-0.01915-0.20269-0.04605-0.29807l1.7157-1.172 2.676 1.1244-1.6174 1.6355c-0.18471-0.14048-0.41185-0.22654-0.66072-0.22654-0.6064 0-1.0995 0.49401-1.0995 1.1016s0.49308 1.1016 1.0995 1.1016c0.60639 0 1.0995-0.49401 1.0995-1.1016 0-0.1695-0.04139-0.32761-0.10969-0.4712l1.8031-1.8231 2.7572 1.1586-1.4679 1.1078c-0.18523-0.14256-0.41496-0.2312-0.66642-0.2312-0.60639 0-1.0995 0.49401-1.0995 1.1016 0 0.60753 0.49308 1.1015 1.0995 1.1015 0.6064 0 1.0995-0.49401 1.0995-1.1015 0-0.16744-0.04036-0.32451-0.10762-0.46706l1.7214-1.299 3.1908 3.4653v0.10316h0.0052v15.012l-2.5694 2.0118-3.5261 0.90198-0.18937 0.16277-1.22 1.2949 0.2825 0.26749 1.2852-1.3649 2.7267-0.69669-2.2341 2.0403 0.26129 0.2877 2.393-2.186-0.36477 1.7454 0.37977 0.0798 0.46928-2.2456 2.1084-1.6505-0.86613 2.1253-0.02121 0.0104 0.0083 0.0171-0.89459 0.92217 0.27836 0.27112 0.78956-0.81488 0.98462 2.1445 0.35287-0.16225-1.0871-2.3679 1.0224-2.5089h0.95564l-0.0067 0.74127-1.3706 1.0974 0.1723 0.21875 1.1947-0.94551-0.03104 3.5322 0.38805 3e-3 0.02173-2.4732 1.0353 0.62464 0.14953-0.24831-1.1823-0.67543 0.01656-1.875h0.79214l0.78128 2.3793-0.01138 0.0109 0.02328 0.0243 0.03 0.0912-0.877 2.3954 0.36425 0.13374 0.82784-2.2617 1.0069 1.0461 0.2794-0.27008-1.2909-1.3405-0.6214-1.891 2.1798 1.707 0.46928 2.2466 0.37977-0.0798-0.33838-1.6189 2.125 1.5836 0.23128-0.31206-2.1234-1.5826 3.0775 0.78689 1.07 1.2047 0.29026-0.25815-1.1367-1.2788zm-0.94012-19.914 0.2618-0.34835c0.08693-0.0518 0.18265-0.0897 0.2913-0.0897 0.32079 0 0.58208 0.26178 0.58208 0.58318 0 0.32138-0.26129 0.58317-0.58208 0.58317-0.32079 0-0.58208-0.26179-0.58208-0.58317-5.01e-4 -0.0513 0.01655-0.0975 0.02898-0.14515zm3.969-1.2804c0.32079 0 0.58207 0.26178 0.58207 0.58317s-0.26128 0.58317-0.58207 0.58317c-0.32079 0-0.58208-0.26178-0.58208-0.58317s0.26129-0.58317 0.58208-0.58317zm3.167-2.1647c0.32079 0 0.58208 0.26177 0.58208 0.58316s-0.26129 0.58318-0.58208 0.58318c-0.32079 0-0.58207-0.26179-0.58207-0.58318s0.26129-0.58316 0.58207-0.58316zm-1.4855-4.402c0.32079 0 0.58208 0.26179 0.58208 0.58317 0 0.32139-0.26129 0.58318-0.58208 0.58318-0.32079 0-0.58208-0.26179-0.58208-0.58318 0-0.32138 0.26129-0.58317 0.58208-0.58317zm-4.3586 0.0352c0-0.32139 0.26129-0.58317 0.58208-0.58317 0.32079 0 0.58208 0.26178 0.58208 0.58317s-0.26129 0.58317-0.58208 0.58317c-0.32079 0-0.58208-0.26127-0.58208-0.58317zm-2.7495 2.5089c0.32079 0 0.58207 0.26177 0.58207 0.58317 0 0.32139-0.26129 0.58317-0.58207 0.58317-0.32079 0-0.58208-0.26178-0.58208-0.58317 0-0.3214 0.26129-0.58317 0.58208-0.58317zm6.2673-5.4694c0.32079 0 0.58208 0.26178 0.58208 0.58317 0 0.3214-0.26128 0.58317-0.58208 0.58317-0.26284 0-0.47705-0.17935-0.54896-0.41987l-0.0052-0.30222c0.06364-0.25244 0.28198-0.44425 0.55414-0.44425zm-1.3954-2.8091c0.32079 0 0.58208 0.26177 0.58208 0.58316 0 0.3214-0.26129 0.58317-0.58208 0.58317-0.07917 0-0.15419-0.0166-0.223-0.0451l-0.23335-0.19284c-0.07399-0.0973-0.12573-0.21355-0.12573-0.34523 0-0.3219 0.26077-0.58316 0.58208-0.58316zm-3.4738-0.50645c0.32079 0 0.58208 0.26177 0.58208 0.58316s-0.26129 0.58317-0.58208 0.58317c-0.05485 0-0.10503-0.017-0.15522-0.0316l-0.27836-0.17261c-0.08951-0.10264-0.1485-0.23276-0.1485-0.37894 0-0.32139 0.26129-0.58316 0.58208-0.58316zm-0.84078-2.7438c0.32079 0 0.58208 0.26177 0.58208 0.58316s-0.26129 0.58317-0.58208 0.58317c-0.15056 0-0.28457-0.0613-0.38805-0.15499l-0.02742-0.0218c-0.10244-0.10523-0.16712-0.2483-0.16712-0.4064 4.99e-4 -0.32139 0.2618-0.58316 0.58259-0.58316zm-3.7838 0.74956-0.01966 7e-3c-0.06571 0.0259-0.13659 0.043-0.21162 0.043-0.32079 0-0.58208-0.26177-0.58208-0.58317 0-0.32138 0.26129-0.58317 0.58208-0.58317 0.32079 0 0.58208 0.26179 0.58208 0.58317 0 0.23845-0.14487 0.44321-0.3508 0.53341zm-1.2278 7.4107c-0.32079 0-0.58208-0.26176-0.58208-0.58316 0-0.32138 0.26129-0.58317 0.58208-0.58317 0.32079 0 0.58208 0.26179 0.58208 0.58317 0 0.3214-0.26129 0.58316-0.58208 0.58316zm-1.9408-3.7318c0.32079 0 0.58208 0.26179 0.58208 0.58318s-0.26129 0.58317-0.58208 0.58317c-0.32079 0-0.58208-0.26178-0.58208-0.58317s0.26129-0.58318 0.58208-0.58318zm-1.3416-4.2128c0-0.32138 0.26129-0.58317 0.58208-0.58317 0.32079 0 0.58208 0.26179 0.58208 0.58317 0 0.3214-0.26129 0.58318-0.58208 0.58318-0.07502 0-0.14539-0.0171-0.21162-0.043l-0.01966-7e-3c-0.20593-0.0897-0.3508-0.29444-0.3508-0.53341zm-2.5922 1.7931c-0.32079 0-0.58208-0.26177-0.58208-0.58317 0-0.32139 0.26129-0.58317 0.58208-0.58317 0.32079 0 0.58208 0.26178 0.58208 0.58317 0 0.3214-0.26129 0.58317-0.58208 0.58317zm-1.1243 2.8936c-0.32079 0-0.58208-0.26177-0.58208-0.58316 0-0.3214 0.26129-0.58318 0.58208-0.58318 0.32079 0 0.58208 0.26178 0.58208 0.58318 0 0.32139-0.26129 0.58316-0.58208 0.58316zm-3.5721-0.72676-0.2349 0.19543c-0.06881 0.029-0.14436 0.0451-0.22404 0.0451-0.32079 0-0.58208-0.26177-0.58208-0.58316s0.26129-0.58317 0.58208-0.58317 0.58208 0.26178 0.58208 0.58317c5.26e-4 0.13062-0.05019 0.24519-0.12314 0.34264zm-1.3023 2.6183c-0.06778 0.24674-0.28405 0.43179-0.55155 0.43179-0.32079 0-0.58208-0.26177-0.58208-0.58317 0-0.32139 0.26129-0.58317 0.58208-0.58317 0.2675 0 0.48377 0.18506 0.55155 0.43181zm-1.3923 3.357c-0.32079 0-0.58208-0.26179-0.58208-0.58318 0-0.32138 0.26129-0.58317 0.58208-0.58317 0.32079 0 0.58208 0.26179 0.58208 0.58317 0 0.32139-0.26129 0.58318-0.58208 0.58318zm-1.486 4.402c-0.32079 0-0.58208-0.26179-0.58208-0.58318s0.26129-0.58316 0.58208-0.58316c0.32079 0 0.58208 0.26177 0.58208 0.58316s-0.26077 0.58318-0.58208 0.58318zm3.1675 2.1647c-0.32079 0-0.58208-0.26178-0.58208-0.58317s0.26129-0.58317 0.58208-0.58317c0.32079 0 0.58208 0.26178 0.58208 0.58317s-0.26129 0.58317-0.58208 0.58317zm2.0944-7.1147c-0.32079 0-0.58208-0.26178-0.58208-0.58317s0.26129-0.58317 0.58208-0.58317c0.32079 0 0.58208 0.26178 0.58208 0.58317s-0.26129 0.58317-0.58208 0.58317zm1.3214 7.957c-0.32079 0-0.58208-0.26179-0.58208-0.58317 0-0.3214 0.26129-0.58318 0.58208-0.58318 0.10814 0 0.20437 0.0379 0.2913 0.0897l0.26181 0.34835c0.01242 0.0477 0.02949 0.0938 0.02949 0.14515-5.25e-4 0.32138-0.2618 0.58317-0.58259 0.58317zm2.0101-4.8649c-0.32079 0-0.58208-0.26178-0.58208-0.58317 0-0.3214 0.26129-0.58317 0.58208-0.58317 0.32079 0 0.58208 0.26177 0.58208 0.58317 0 0.32139-0.26129 0.58317-0.58208 0.58317z" style="fill:#136527;stroke-width:.51789"/>
</svg>
