<svg width="16" height="16" enable-background="new 0 0 453.54 453.54" version="1.1" viewBox="0 0 16 16" xmlns="http://www.w3.org/2000/svg">
 <path d="m11.082 15.052-1.4601-0.37343-1.0524-0.82416v-6.0351l1.272-1.3813 0.68854 0.51958c-0.02691 0.05703-0.04305 0.11985-0.04305 0.18682 0 0.243 0.19722 0.44059 0.43979 0.44059 0.24256 0 0.43979-0.1976 0.43979-0.44059 0-0.24301-0.19723-0.44062-0.43979-0.44062-0.10058 0-0.19227 0.03524-0.26656 0.09248l-0.58714-0.44311 1.1029-0.46343 0.72146 0.72922c-0.02732 0.05744-0.04388 0.12088-0.04388 0.18848 0 0.24301 0.19723 0.44062 0.43979 0.44062 0.24255 0 0.43979-0.1976 0.43979-0.44062 0-0.24303-0.19722-0.44063-0.43979-0.44063-0.09955 0-0.1904 0.03464-0.26428 0.09061l-0.64714-0.65418 1.0704-0.44975 0.68646 0.46883c-0.01076 0.03816-0.01842 0.07775-0.01842 0.11922 0 0.243 0.19722 0.44059 0.43979 0.44059 0.24255 0 0.43979-0.1976 0.43979-0.44059 0-0.24301-0.19722-0.44063-0.43979-0.44063-0.12624 0-0.23945 0.05433-0.31954 0.13975l-0.6395-0.43667 0.2796-0.59134c0.02753 0.0054 0.05609 0.0087 0.08527 0.0087 0.24255 0 0.43979-0.1976 0.43979-0.44059 0-0.24301-0.19722-0.44062-0.43979-0.44062-0.24255 0-0.43979 0.1976-0.43979 0.44062 0 0.13954 0.06623 0.26249 0.16763 0.34337l-0.29719 0.62806-1.0702 0.44975 0.1666-1.2034c0.22455-0.01948 0.40211-0.20673 0.40211-0.43666 0-0.243-0.19723-0.44063-0.43979-0.44063-0.24255 0-0.43978 0.19761-0.43978 0.44063 0 0.1837 0.11279 0.34108 0.27277 0.40723l-0.18377 1.3262-1.1509 0.48351 0.11465-0.5449c0.018 0.0024 0.0356 0.0054 0.05422 0.0054 0.24255 0 0.43978-0.19759 0.43978-0.44059 0-0.243-0.19722-0.44059-0.43978-0.44059-0.24255 0-0.43979 0.1976-0.43979 0.44059 0 0.1497 0.075329 0.28178 0.18957 0.3616l-0.14694 0.6979-1.1604 1.26v-2.1568l0.25331-0.40991 1.815-1.1133 0.0081 0.0066 0.58422-0.71078 0.97866-0.01616c0.04802 0.19096 0.21978 0.33341 0.42507 0.33341 0.24255 0 0.43979-0.1976 0.43979-0.44062 0-0.243-0.19722-0.44059-0.43979-0.44059-0.20799 0-0.38162 0.14577-0.42715 0.34046l-0.80383 0.01328 0.5151-0.62658c0.04905 0.01888 0.10203 0.03048 0.1577 0.03048 0.24255 0 0.43979-0.1976 0.43979-0.44062 0-0.243-0.19722-0.44059-0.43979-0.44059-0.24255 0-0.43978 0.1976-0.43978 0.44059 0 0.11197 0.04305 0.21315 0.11217 0.2909l-1.2206 1.485-1.4628 0.89698 1.5141-2.4496c0.03456 0.0087 0.07016 0.01492 0.10762 0.01492 0.24255 0 0.43979-0.19759 0.43979-0.44059 0-0.243-0.19723-0.44059-0.43979-0.44059-0.24255 0-0.43979 0.1976-0.43979 0.44059 0 0.13083 0.05836 0.24716 0.14901 0.32802l-0.69598 1.1261-0.34748-1.09 0.82821-1.0552c0.05215 0.022 0.10948 0.034199 0.1695 0.034199 0.24255 0 0.43978-0.1976 0.43978-0.44059 0-0.243-0.19722-0.44059-0.43978-0.44059-0.24255 0-0.43979 0.1976-0.43979 0.44059 0 0.10782 0.040349 0.20527 0.10451 0.28178l-0.73862 0.94131-0.3154-0.98901c0.13266-0.076086 0.2231-0.2173 0.2231-0.3811 0-0.243-0.19722-0.44059-0.43978-0.44059-0.24255 0-0.43978 0.1976-0.43978 0.44059 0 0.24301 0.19722 0.44063 0.43978 0.44063 0.0062 0 0.0118-0.0016 0.0178-2e-3l0.79431 2.4917-0.72434 1.1719-0.2529-0.78606c0.12334-0.077961 0.20613-0.21501 0.20613-0.37177 0-0.243-0.19722-0.44059-0.43978-0.44059-0.24255 0-0.43979 0.1976-0.43979 0.44059 0 0.24299 0.19723 0.44059 0.43979 0.44059 0.01283 0 0.02463-0.0028 0.03725-0.0036l0.3065 0.95233-0.32327 0.5229h-0.0033v0.0054l-2.09e-4 4e-4 2.09e-4 2.08e-4v2.5126h-0.71566v-2.5462h-0.0031l-0.74077-1.1874 0.57327-1.2932c0.03001 0.0064 0.060849 0.010359 0.092721 0.010359 0.24255 0 0.43978-0.1976 0.43978-0.44059 0-0.24301-0.19722-0.44062-0.43978-0.44062-0.24255 0-0.43978 0.1976-0.43978 0.44062 0 0.13664 0.06374 0.25731 0.16122 0.33818l-0.51987 1.1729-0.3154-0.50571 0.79221-2.4848c6e-3 2.08e-4 0.0118 2e-3 0.0178 2e-3 0.24255 0 0.43978-0.1976 0.43978-0.44063 0-0.243-0.19722-0.44059-0.43978-0.44059-0.24255 0-0.43979 0.1976-0.43979 0.44059 0 0.1638 0.090643 0.305 0.2231 0.3811l-0.31375 0.98406-0.42715-0.57102c0.078846-0.079618 0.1279-0.1893 0.1279-0.31019 0-0.243-0.19722-0.44059-0.43979-0.44059-0.24255 0-0.43979 0.1976-0.43979 0.44059s0.19722 0.44059 0.43979 0.44059c0.046978 0 0.091266-0.0093 0.13369-0.02296l0.52815 0.70582-0.34623 1.0858-0.45943-0.7365c0.082161-0.080031 0.13369-0.19158 0.13369-0.31537 0-0.243-0.19722-0.44059-0.43979-0.44059-0.24255 0-0.43979 0.1976-0.43979 0.44059 0 0.24299 0.19722 0.44059 0.43979 0.44059 0.044494 0 0.086503-0.0087 0.12707-0.02096l1.292 2.0714-1.4553-0.89263-1.2478-1.5028c0.068502-0.077751 0.11134-0.17852 0.11134-0.29008 0-0.243-0.19722-0.44059-0.43979-0.44059-0.24255 0-0.43979 0.1976-0.43979 0.44059 0 0.24301 0.19722 0.44062 0.43979 0.44062 0.056087 0 0.10927-0.0116 0.15873-0.03068l0.50662 0.61023h-0.79738c-0.046978-0.19283-0.21958-0.33694-0.42631-0.33694-0.24255 0-0.43979 0.1976-0.43979 0.44063 0 0.243 0.19722 0.44062 0.43979 0.44062 0.20675 0 0.37935-0.1441 0.42631-0.33694h0.96958l0.5917 0.71286-0.00248 0.0042 0.012208 0.0075 0.017384 0.02096 0.00704-6e-3 1.8105 1.1104 9.975e-4 -0.0016 0.23137 0.37094v2.1843l-1.1602-1.26-0.14715-0.69814c0.11424-0.07962 0.18957-0.2117 0.18957-0.3616 0-0.243-0.19722-0.44062-0.43979-0.44062-0.24256 0-0.43979 0.19761-0.43979 0.44062 0 0.24301 0.19722 0.44063 0.43979 0.44063 0.018628 0 0.036214-0.0032 0.054222-0.0054l0.11486 0.5449-1.1509-0.48351-0.18378-1.3262c0.15977-0.06614 0.27277-0.22352 0.27277-0.40723 0-0.24301-0.19722-0.44063-0.43979-0.44063-0.24255 0-0.43979 0.1976-0.43979 0.44063 0 0.22994 0.17736 0.41739 0.40211 0.43666l0.1666 1.2034-1.0702-0.4495-0.29719-0.62806c0.10141-0.080871 0.16763-0.20382 0.16763-0.34337 0-0.24301-0.19722-0.44062-0.43979-0.44062-0.24257 0-0.43979 0.1976-0.43979 0.44062 0 0.243 0.19722 0.44059 0.43979 0.44059 0.029179 0 0.057534-0.0032 0.085056-0.0087l0.2798 0.59134-0.6395 0.43667c-0.080301-0.08563-0.1935-0.13996-0.31954-0.13996-0.24255 0-0.43979 0.1976-0.43979 0.44063 0 0.243 0.19722 0.44059 0.43979 0.44059 0.24256 0 0.43979-0.19761 0.43979-0.44059 0-0.04168-0.00766-0.08107-0.01842-0.11922l0.68626-0.46879 1.0704 0.44975-0.64694 0.65418c-0.073883-0.05619-0.16473-0.09061-0.26428-0.09061-0.24255 0-0.43979 0.1976-0.43979 0.44063 0 0.24303 0.19722 0.44062 0.43979 0.44062 0.24255 0 0.43979-0.1976 0.43979-0.44062 0-0.0678-0.016556-0.13104-0.043875-0.18848l0.72122-0.7292 1.1029 0.46343-0.58714 0.44311c-0.074089-0.05702-0.16598-0.09248-0.26656-0.09248-0.24255 0-0.43979 0.1976-0.43979 0.44062 0 0.243 0.19722 0.44059 0.43979 0.44059 0.24255 0 0.43979-0.1976 0.43979-0.44059 0-0.06697-0.016144-0.1298-0.043047-0.18682l0.68854-0.51958 1.2762 1.386v0.04126h0.0021v6.0046l-1.0277 0.80473-1.4104 0.36078-0.075749 0.06511-0.48799 0.51795 0.113 0.10699 0.51406-0.54594 1.0906-0.27866-0.89361 0.81613 0.10451 0.11508 0.95721-0.87441-0.1459 0.69814 0.1519 0.03192 0.18771-0.89818 0.84336-0.66018-0.34644 0.85011-0.0085 0.0042 0.0033 0.0068-0.35783 0.36886 0.11134 0.10845 0.31582-0.32594 0.39384 0.85776 0.14115-0.0649-0.43483-0.94716 0.40895-1.0036h0.38224l-0.0027 0.2965-0.54822 0.43895 0.068919 0.0875 0.47787-0.3782-0.01242 1.4128 0.15522 0.0012 0.0087-0.98923 0.41411 0.24985 0.05981-0.09932-0.47291-0.27017 0.0066-0.74998h0.31685l0.3125 0.95173-0.0046 0.0044 0.0093 0.0097 0.012 0.03648-0.35079 0.95811 0.14569 0.05349 0.33113-0.90463 0.40275 0.41843 0.11176-0.10803-0.51634-0.53619-0.24855-0.75636 0.87193 0.68278 0.18771 0.89863 0.1519-0.03192-0.13535-0.64754 0.84996 0.63342 0.09251-0.12482-0.84936-0.63302 1.231 0.31475 0.42799 0.48187 0.1161-0.10326-0.45467-0.5115zm-0.37604-7.9656 0.10472-0.13933c0.03477-0.02072 0.07306-0.03588 0.11652-0.03588 0.12832 0 0.23282 0.10471 0.23282 0.23327 0 0.12855-0.10451 0.23326-0.23282 0.23326s-0.23282-0.10471-0.23282-0.23326c-2.01e-4 -0.02052 0.0066-0.039 0.01159-0.05806zm1.5876-0.51214c0.12832 0 0.23282 0.1047 0.23282 0.23326s-0.10451 0.23326-0.23282 0.23326c-0.12832 0-0.23283-0.10471-0.23283-0.23326s0.10451-0.23326 0.23283-0.23326zm1.2668-0.86586c0.12832 0 0.23282 0.1047 0.23282 0.23326s-0.10451 0.23327-0.23282 0.23327-0.23283-0.10471-0.23283-0.23327 0.10451-0.23326 0.23283-0.23326zm-0.59418-1.7607c0.12832 0 0.23283 0.10471 0.23283 0.23326 0 0.12855-0.10451 0.23327-0.23283 0.23327s-0.23282-0.10471-0.23282-0.23327c0-0.12855 0.10451-0.23326 0.23282-0.23326zm-1.7434 0.01408c0-0.12856 0.10451-0.23326 0.23282-0.23326s0.23283 0.10471 0.23283 0.23326c0 0.12856-0.10451 0.23326-0.23283 0.23326s-0.23282-0.1045-0.23282-0.23326zm-1.0998 1.0036c0.12832 0 0.23282 0.10471 0.23282 0.23326 0 0.12855-0.10451 0.23326-0.23282 0.23326-0.12831 0-0.23283-0.10471-0.23283-0.23326 0-0.12856 0.10451-0.23326 0.23283-0.23326zm2.5068-2.1877c0.12832 0 0.23282 0.10471 0.23282 0.23326s-0.10451 0.23326-0.23282 0.23326c-0.10513 0-0.19081-0.071739-0.21958-0.16794l-0.0021-0.12088c0.02546-0.10097 0.11279-0.17769 0.22165-0.17769zm-0.55815-1.1236c0.12831 0 0.23282 0.10471 0.23282 0.23326s-0.10451 0.23326-0.23282 0.23326c-0.03167 0-0.06167-0.0066-0.0892-0.01804l-0.09334-0.077128c-0.0296-0.03892-0.05029-0.085416-0.05029-0.13809 0-0.12876 0.10431-0.23326 0.23282-0.23326zm-1.3895-0.20257c0.12832 0 0.23282 0.10471 0.23282 0.23326 0 0.12855-0.10451 0.23326-0.23282 0.23326-0.02194 0-0.04201-0.0068-0.06209-0.01264l-0.11134-0.069039c-0.0358-0.041059-0.0594-0.093096-0.0594-0.15157 0-0.12855 0.10451-0.23326 0.23282-0.23326zm-0.3363-1.0975c0.12832 0 0.23282 0.10471 0.23282 0.23326 0 0.12855-0.10451 0.23326-0.23282 0.23326-0.06022 0-0.11382-0.02452-0.15522-0.061989l-0.01097-0.0087c-0.040974-0.04209-0.066848-0.099321-0.066848-0.16256 1.98e-4 -0.12855 0.10472-0.23326 0.23303-0.23326zm-1.5135 0.29981-0.0079 0.0028c-0.02628 0.010359-0.054639 0.0172-0.084651 0.0172-0.12832 0-0.23283-0.10471-0.23283-0.23326 0-0.12855 0.10451-0.23326 0.23283-0.23326 0.12831 0 0.23283 0.10471 0.23283 0.23326 0 0.095376-0.05795 0.17728-0.14031 0.21336zm-0.49111 2.9642c-0.12831 0-0.23283-0.1047-0.23283-0.23326 0-0.12855 0.10451-0.23326 0.23283-0.23326 0.12832 0 0.23283 0.10471 0.23283 0.23326 0 0.12855-0.10451 0.23326-0.23283 0.23326zm-0.77631-1.4927c0.12832 0 0.23283 0.10471 0.23283 0.23327 0 0.12856-0.10451 0.23326-0.23283 0.23326s-0.23283-0.10471-0.23283-0.23326c0-0.12855 0.10451-0.23327 0.23283-0.23327zm-0.53662-1.6851c0-0.12855 0.10451-0.23326 0.23283-0.23326s0.23283 0.10471 0.23283 0.23326c0 0.12856-0.10451 0.23327-0.23283 0.23327-0.03001 0-0.058149-0.0068-0.084651-0.0172l-0.0079-0.0028c-0.08237-0.03588-0.14031-0.11778-0.14031-0.21336zm-1.0369 0.71722c-0.12831 0-0.23283-0.10471-0.23283-0.23326 0-0.12855 0.10451-0.23326 0.23283-0.23326 0.12832 0 0.23283 0.10471 0.23283 0.23326 0 0.12856-0.10451 0.23326-0.23283 0.23326zm-0.44971 1.1574c-0.12832 0-0.23283-0.10471-0.23283-0.23326 0-0.12856 0.10451-0.23327 0.23283-0.23327s0.23283 0.10471 0.23283 0.23327c0 0.12855-0.10451 0.23326-0.23283 0.23326zm-1.4288-0.29069-0.093958 0.078171c-0.027523 0.0116-0.057743 0.01804-0.089616 0.01804-0.12832 0-0.23283-0.10471-0.23283-0.23326s0.10451-0.23326 0.23283-0.23326 0.23283 0.10471 0.23283 0.23326c2.104e-4 0.052249-0.020076 0.098068-0.049254 0.13705zm-0.5209 1.0473c-0.02711 0.098691-0.11362 0.17271-0.22062 0.17271-0.12831 0-0.23283-0.10471-0.23283-0.23326s0.10451-0.23326 0.23283-0.23326c0.107 0 0.1935 0.074019 0.22062 0.17272zm-0.5569 1.3428c-0.12832 0-0.23283-0.10471-0.23283-0.23327 0-0.12855 0.10451-0.23326 0.23283-0.23326 0.12831 0 0.23283 0.10471 0.23283 0.23326 0 0.12856-0.10451 0.23327-0.23283 0.23327zm-0.59439 1.7607c-0.12831 0-0.23283-0.10471-0.23283-0.23327s0.10451-0.23326 0.23283-0.23326c0.12832 0 0.23283 0.10471 0.23283 0.23326s-0.10431 0.23327-0.23283 0.23327zm1.267 0.86586c-0.12831 0-0.23283-0.10471-0.23283-0.23326s0.10451-0.23326 0.23283-0.23326c0.12832 0 0.23283 0.1047 0.23283 0.23326s-0.10451 0.23326-0.23283 0.23326zm0.83773-2.8458c-0.12832 0-0.23283-0.10471-0.23283-0.23326 0-0.12856 0.10451-0.23326 0.23283-0.23326 0.12831 0 0.23283 0.10471 0.23283 0.23326 0 0.12856-0.10451 0.23326-0.23283 0.23326zm0.52854 3.1827c-0.12832 0-0.23283-0.10471-0.23283-0.23326 0-0.12856 0.10451-0.23327 0.23283-0.23327 0.043255 0 0.081748 0.01516 0.11652 0.03588l0.10472 0.13933c0.00497 0.01908 0.011796 0.03752 0.011796 0.05806-2.1e-4 0.12855-0.10472 0.23326-0.23303 0.23326zm0.80398-1.9459c-0.12832 0-0.23283-0.10471-0.23283-0.23326 0-0.12856 0.10451-0.23326 0.23283-0.23326 0.12831 0 0.23283 0.1047 0.23283 0.23326s-0.10451 0.23326-0.23283 0.23326z" style="fill:#136527;stroke-width:.20715"/>
</svg>
